# xmcd
#
# Track frame offsets:
#	150
#	15493
#	27845
#	43763
#	55789
#	71056
#	84623
#	96792
#	110871
#	123789
#	137018
#	150592
#	166864
#	177953
#	191268
#	204537
#	224781
#	240452
#	257657
#	272192
#	283366
#	301437
#
# Disc length: 4187 seconds
#
# Revision: 1
# Processed by: cddbd v1.5PL3 Copyright (c) Steve Scherf et al.
# Submitted via: EasyCDDAExtractor 7.0.4.1
#
DISCID=40105916
DTITLE=Barry Sisters - Something Spanish - My Our Way
DYEAR=1998
DGENRE=Blues
TTITLE0=Que Sabes Tu
TTITLE1=Perdoname Mi Vida
TTITLE2=Mahna De Carnaval
TTITLE3=Campanitas De Cristal
TTITLE4=Convendico Estoy
TTITLE5=Inka Dinka Doo
TTITLE6=Noches Quietas Mi Cancion
TTITLE7=Juramos Amor
TTITLE8=La Sombra De Tu Sonrisa
TTITLE9=El Dia
TTITLE10=Vaya Con Dios
TTITLE11=Cuando Calienta Sol
TTITLE12=Raindrops Keep Falling On My Head
TTITLE13=Alice Blue Gown
TTITLE14=Cabaret
TTITLE15=My Way
TTITLE16=Bei Mir Bist Du Schon
TTITLE17=It's Impossible
TTITLE18=Tea For Two
TTITLE19=Mame
TTITLE20=Love Story
TTITLE21=To Life
EXTD=
EXTT0=
EXTT1=
EXTT2=
EXTT3=
EXTT4=
EXTT5=
EXTT6=
EXTT7=
EXTT8=
EXTT9=
EXTT10=
EXTT11=
EXTT12=
EXTT13=
EXTT14=
EXTT15=
EXTT16=
EXTT17=
EXTT18=
EXTT19=
EXTT20=
EXTT21=
PLAYORDER=
